<svg width="1024" height="384" viewBox="0 0 1024 384" fill="none" xmlns="http://www.w3.org/2000/svg">
<g clip-path="url(#clip0)">
<path d="M610.89 268.32L612.578 280.714L600.759 281.827L602.448 266.631L610.89 268.32Z" fill="#A0616A"/>
<path d="M555.207 98.5063C555.207 98.5063 556.321 113.666 556.321 114.241C556.321 114.816 548.453 153.758 548.453 153.758C548.453 153.758 537.209 175.132 548.453 174.558C559.698 173.983 556.321 154.296 556.321 154.296L568.032 121.534L562.967 98.5063H555.207Z" fill="#A0616A"/>
<path d="M573.78 268.32L572.091 280.714L583.874 281.827L582.186 266.631L573.78 268.32Z" fill="#A0616A"/>
<path d="M560.848 152.465L558.01 156.416C558.01 156.416 556.321 173.3 558.01 178.905C559.698 184.509 563.075 210.41 563.075 212.098C563.075 213.787 563.65 214.901 563.075 215.475C562.5 216.05 560.848 216.014 561.961 217.164C563.075 218.313 563.075 221.654 563.075 221.654V224.456L570.26 266.092C570.26 266.092 565.733 271.122 569.11 271.122C572.487 271.122 584.881 271.122 584.306 265.518L583.192 264.943C583.192 264.943 581.504 227.833 582.043 226.145C582.349 224.47 582.349 222.754 582.043 221.079C582.043 221.079 580.929 219.391 582.043 218.852C583.156 218.313 583.192 213.787 583.192 213.787L588.258 179.479C588.258 179.479 592.748 202.543 595.443 204.626C598.137 206.71 597.706 212.494 597.706 212.494L600.364 262.141C600.364 262.141 598.137 267.781 600.364 268.894C602.591 270.008 612.183 273.96 612.758 268.32C613.333 262.68 616.135 213.787 616.135 211.524C616.135 209.26 615.56 208.147 616.135 206.458C616.71 204.77 615.56 204.77 616.135 204.77C616.71 204.77 614.985 203.082 614.985 201.968V174.414C615.177 172.135 615.562 169.875 616.135 167.66C616.674 166.547 615.56 165.433 616.135 163.745C616.141 161.303 615.753 158.877 614.985 156.56L589.838 149.806L560.848 152.465Z" fill="#2F2E41"/>
<path d="M580.498 278.45C580.498 278.45 583.336 275.648 579.384 275.648C576.897 275.698 574.449 276.273 572.199 277.336L569.361 287.431C569.361 287.431 557.83 296.735 570.762 295.586C583.695 294.436 581.755 295.334 581.755 295.334C581.755 295.334 585.671 294.185 586.246 293.071C586.197 287.247 585.825 281.431 585.132 275.648C585.132 275.648 583.336 280.138 580.498 278.45Z" fill="#2F2E41"/>
<path d="M604.71 278.45C604.71 278.45 601.872 275.648 605.823 275.648C608.31 275.701 610.758 276.276 613.008 277.336L615.846 287.431C615.846 287.431 627.378 296.735 614.409 295.586C601.441 294.436 601.764 295.334 601.764 295.334C601.764 295.334 597.848 294.185 597.273 293.071C597.838 287.21 598.774 281.391 600.076 275.648C600.076 275.648 601.872 280.138 604.71 278.45Z" fill="#2F2E41"/>
<path d="M568.14 54.0683C576.215 54.0683 582.761 47.5223 582.761 39.4473C582.761 31.3723 576.215 24.8262 568.14 24.8262C560.065 24.8262 553.519 31.3723 553.519 39.4473C553.519 47.5223 560.065 54.0683 568.14 54.0683Z" fill="#A0616A"/>
<path d="M563.075 50.1168C563.075 50.1168 565.338 61.3611 565.338 63.0495C565.338 64.7379 574.894 69.8032 574.894 69.8032L585.671 56.3317C585.671 56.3317 578.81 46.74 578.81 44.5127L563.075 50.1168Z" fill="#A0616A"/>
<path d="M571.624 64.738C569.218 64.1138 567.015 62.876 565.23 61.1455C565.23 61.1455 549.675 76.4133 549.675 79.1076L561.961 101.201C561.961 101.201 561.961 109.068 563.074 109.643C564.188 110.218 563.074 109.643 563.074 111.87C563.074 114.098 559.698 128.755 560.847 131.018C561.997 133.281 563.074 131.557 561.961 134.934C560.847 138.31 558.009 156.308 558.009 156.308C566.288 154.381 574.969 155.175 582.761 158.572C597.382 164.176 614.805 156.308 614.805 156.308C614.805 156.308 610.315 146.178 611.428 142.801C612.542 139.424 608.626 133.533 608.626 133.533L605.824 81.8019C605.824 81.8019 609.74 58.7386 606.938 57.625L601.334 55.3618L583.372 53.1704C583.372 53.1704 578.809 64.1991 571.624 64.738Z" fill="#D0CDE1"/>
<path d="M555.208 75.4434L549.568 79.3591C549.568 79.3591 546.766 87.8012 549.568 91.7529C551.501 94.6246 552.889 97.8272 553.663 101.201L564.908 100.087L555.208 75.4434Z" fill="#D0CDE1"/>
<path d="M556.967 24.0001L554.453 22.9942C556.085 21.2791 558.054 19.9186 560.236 18.9977C562.418 18.0768 564.766 17.6151 567.134 17.6416L565.05 15.3783C566.801 14.8467 568.674 14.876 570.406 15.4622C572.139 16.0485 573.646 17.1622 574.714 18.6474C577.477 21.5885 579.833 24.8871 581.719 28.4547H584.413L583.3 30.9694L587.251 33.4481L583.192 32.9452C583.584 35.101 583.448 37.3195 582.797 39.4115V41.3874C581.014 38.7356 579.44 35.9491 578.091 33.053V35.6036C578.091 35.6036 575.54 33.3044 575.54 31.7956L574.175 33.5559L573.456 30.7898L564.942 33.5559L566.307 31.2927L561.027 32.0471L563.11 29.245C563.11 29.245 557.111 32.55 556.859 35.3521C556.319 37.6938 555.208 39.8658 553.626 41.6747L552.261 39.1601C552.261 39.1601 550.285 27.8081 556.967 24.0001Z" fill="#2F2E41"/>
<path d="M596.771 80.5088C594.837 85.8317 593.97 91.4836 594.221 97.1416C594.332 98.6314 594.827 100.067 595.658 101.309L555.782 120.241C555.782 120.241 537.82 122.109 542.274 129.976C546.729 137.844 563.074 126.06 563.074 126.06C563.074 126.06 605.824 119.882 609.201 113.667C612.578 107.452 614.733 81.6224 614.733 81.6224L596.771 80.5088Z" fill="#A0616A"/>
<path d="M598.496 57.4453H606.938C606.938 57.4453 613.117 58.559 614.805 69.8032C616.494 81.0474 618.182 83.8854 616.494 83.8854C614.805 83.8854 594.58 83.3106 594.58 82.7358C594.58 82.1611 598.496 57.4453 598.496 57.4453Z" fill="#D0CDE1"/>
<path d="M4.02458 200.945C3.90133 198.683 4.24254 196.419 5.02718 194.294C5.81182 192.169 7.02328 190.226 8.58693 188.587C10.2263 187.023 12.1685 185.812 14.2938 185.027C16.4192 184.243 18.6826 183.901 20.9448 184.025H81.0457C82.016 185.684 82.7762 187.458 83.309 189.305C83.9747 191.544 84.3135 193.867 84.3148 196.203C84.4917 197.962 84.3159 199.738 83.7977 201.428C83.2796 203.119 82.4295 204.688 81.2972 206.046C80.2427 207.037 78.9994 207.805 77.6416 208.305C76.2837 208.805 74.8391 209.026 73.3939 208.956H34.9552V225.876H75.8727C76.8242 227.52 77.5835 229.268 78.1359 231.085C78.8094 233.297 79.1484 235.598 79.1418 237.911C79.4912 241.434 78.4467 244.955 76.2319 247.718C75.1985 248.72 73.9699 249.499 72.6226 250.005C71.2753 250.512 69.8381 250.736 68.4005 250.664H34.9552V269.775H81.6564C82.6267 271.435 83.3869 273.209 83.9197 275.056C84.6052 277.29 84.9444 279.617 84.9255 281.954C85.274 285.528 84.1886 289.094 81.9079 291.869C80.8622 292.879 79.623 293.667 78.2647 294.185C76.9065 294.704 75.4574 294.942 74.0046 294.886H20.9448C18.6826 295.009 16.4192 294.668 14.2938 293.884C12.1685 293.099 10.2263 291.887 8.58693 290.324C7.02328 288.684 5.81182 286.742 5.02718 284.617C4.24254 282.492 3.90133 280.228 4.02458 277.966V200.945Z" fill="#F15A24"/>
<path d="M181.525 268.427C181.676 272.593 180.81 276.733 179.001 280.489C177.192 284.245 174.495 287.503 171.143 289.982C164.197 295.179 153.995 297.789 140.536 297.813C135.724 297.848 130.918 297.487 126.166 296.735C122.302 296.137 118.542 295.001 114.994 293.359C112.181 292.032 109.72 290.063 107.809 287.611C106.026 285.258 105.089 282.372 105.15 279.42C105.099 276.903 105.733 274.42 106.982 272.235C108.134 270.281 109.646 268.562 111.437 267.17C115.306 269.261 119.358 270.993 123.543 272.343C128.633 273.936 133.946 274.7 139.278 274.606C142.252 274.766 145.22 274.212 147.936 272.99C148.797 272.616 149.534 272.006 150.062 271.23C150.59 270.454 150.886 269.545 150.918 268.607C150.937 267.812 150.748 267.026 150.37 266.327C149.992 265.627 149.438 265.039 148.762 264.619C146.534 263.393 144.098 262.59 141.577 262.248L136.117 261.135C127.563 259.941 119.453 256.591 112.551 251.399C109.879 249.036 107.777 246.099 106.403 242.807C105.028 239.516 104.415 235.957 104.611 232.395C104.538 228.2 105.515 224.054 107.454 220.333C109.392 216.612 112.231 213.435 115.712 211.092C119.592 208.474 123.894 206.542 128.429 205.381C133.75 203.978 139.236 203.302 144.739 203.369C148.975 203.343 153.205 203.679 157.384 204.375C160.937 204.909 164.404 205.911 167.694 207.356C170.366 208.534 172.728 210.318 174.592 212.565C176.294 214.706 177.196 217.374 177.142 220.109C177.22 222.594 176.69 225.061 175.597 227.294C174.629 229.208 173.3 230.916 171.682 232.324C170.286 231.576 168.818 230.974 167.299 230.527C165.359 229.881 163.24 229.27 160.94 228.731C158.641 228.192 156.306 227.725 153.756 227.366C151.617 227.026 149.455 226.846 147.289 226.827C144.141 226.678 140.993 227.142 138.021 228.192C137.084 228.455 136.256 229.012 135.66 229.783C135.065 230.553 134.734 231.494 134.716 232.467C134.717 233.123 134.886 233.768 135.207 234.34C135.527 234.912 135.989 235.393 136.548 235.736C138.704 236.922 141.05 237.724 143.481 238.107L149.121 239.365C160.761 242.059 169.059 245.723 173.945 250.393C176.411 252.693 178.362 255.489 179.669 258.598C180.975 261.706 181.608 265.056 181.525 268.427Z" fill="#F15A24"/>
<path d="M252.691 228.013C249.742 228.001 246.813 228.5 244.033 229.485C241.355 230.37 238.903 231.829 236.848 233.76C234.743 235.786 233.09 238.235 231.999 240.945C230.731 244.056 230.119 247.395 230.202 250.753C229.965 253.881 230.422 257.022 231.54 259.954C232.657 262.885 234.409 265.533 236.669 267.709C241.029 271.481 246.639 273.492 252.403 273.349C255.601 273.411 258.788 272.975 261.851 272.055C264.309 271.321 266.711 270.409 269.036 269.325C271.217 270.728 273.087 272.562 274.533 274.714C275.802 276.891 276.436 279.38 276.365 281.899C276.387 284.31 275.723 286.677 274.451 288.725C273.179 290.773 271.351 292.417 269.18 293.466C263.091 296.5 256.323 297.911 249.529 297.562C242.465 297.645 235.439 296.503 228.765 294.185C222.883 292.129 217.472 288.916 212.851 284.737C208.431 280.624 204.94 275.615 202.613 270.044C200.156 264.038 198.934 257.6 199.02 251.112C198.86 243.9 200.193 236.732 202.936 230.06C205.357 224.362 209.043 219.288 213.713 215.224C218.278 211.306 223.578 208.338 229.304 206.494C235.323 204.531 241.618 203.549 247.949 203.584C255.008 203.164 262.037 204.812 268.174 208.326C270.32 209.565 272.109 211.337 273.368 213.47C274.627 215.604 275.313 218.027 275.359 220.504C275.276 222.774 274.621 224.986 273.455 226.935C272.425 228.844 271.131 230.597 269.611 232.144C267.193 231.018 264.695 230.069 262.139 229.306C259.072 228.404 255.887 227.968 252.691 228.013Z" fill="#F15A24"/>
<path d="M454.404 294.652L448.477 295.658C445.861 296.059 443.219 296.263 440.573 296.269C438.168 296.288 435.765 296.108 433.389 295.73C431.451 295.454 429.611 294.701 428.036 293.538C426.516 292.398 425.346 290.855 424.659 289.084C423.811 286.786 423.408 284.348 423.474 281.899V176.139L429.401 175.133C432.013 174.7 434.657 174.484 437.304 174.486C439.71 174.465 442.114 174.645 444.489 175.025C446.43 175.333 448.273 176.083 449.878 177.216C451.31 178.401 452.411 179.935 453.075 181.671C453.947 184.037 454.349 186.551 454.261 189.071L454.404 294.652Z" fill="#F15A24"/>
<path d="M515.726 203.62C521.773 203.569 527.803 204.244 533.688 205.632C538.64 206.765 543.333 208.825 547.519 211.703C551.274 214.375 554.3 217.944 556.32 222.085C558.497 226.722 559.567 231.801 559.446 236.922V277.696C559.558 280.523 558.61 283.291 556.787 285.455C554.975 287.497 552.853 289.243 550.501 290.629C542.633 295.37 531.497 297.813 517.199 297.813C511.337 297.855 505.49 297.216 499.776 295.909C495.058 294.887 490.558 293.038 486.484 290.449C482.893 288.136 479.951 284.946 477.934 281.18C475.857 277.127 474.82 272.621 474.917 268.068C474.694 264.504 475.247 260.933 476.537 257.603C477.827 254.273 479.823 251.262 482.389 248.777C487.382 244.286 495.07 241.592 505.524 240.407L529.341 237.856V236.563C529.425 234.984 529.027 233.416 528.199 232.069C527.372 230.722 526.154 229.658 524.707 229.019C520.471 227.298 515.91 226.526 511.344 226.756C506.814 226.738 502.296 227.22 497.872 228.192C493.826 229.053 489.86 230.255 486.017 231.785C484.3 230.54 482.938 228.868 482.065 226.935C480.971 224.763 480.404 222.363 480.413 219.93C480.263 217.222 481.077 214.549 482.712 212.386C484.615 210.22 487.02 208.555 489.717 207.536C493.745 206.084 497.928 205.107 502.183 204.626C506.672 204.005 511.195 203.669 515.726 203.62ZM517.199 275.145C519.488 275.137 521.771 274.933 524.025 274.535C525.955 274.286 527.827 273.702 529.557 272.81V258.225L516.481 259.339C513.567 259.438 510.71 260.173 508.11 261.494C507.096 261.994 506.246 262.774 505.66 263.741C505.075 264.709 504.778 265.824 504.805 266.955C504.773 268.097 505.013 269.231 505.507 270.262C506.001 271.293 506.733 272.191 507.643 272.882C510.499 274.653 513.853 275.448 517.199 275.145Z" fill="#F15A24"/>
<path d="M658.489 182.605C661.558 181.006 664.817 179.799 668.188 179.013C672.458 177.9 676.852 177.332 681.264 177.324C686.927 177.235 692.56 178.16 697.897 180.054C699.997 180.676 701.927 181.77 703.54 183.252C705.152 184.734 706.405 186.564 707.202 188.604C709.453 195.143 711.848 202.734 714.386 211.38C717.009 220.002 719.667 228.947 722.29 238.144C724.912 247.34 727.499 256.465 730.013 265.41L736.875 289.192C735.017 291.169 732.677 292.63 730.085 293.431C726.613 294.588 722.967 295.135 719.308 295.047C716.749 295.094 714.193 294.841 711.692 294.293C709.865 293.898 708.14 293.127 706.627 292.03C705.261 290.986 704.165 289.631 703.43 288.078C702.534 286.27 701.813 284.382 701.274 282.438L697.861 269.469H663.841C662.835 273.062 661.83 277.121 660.824 281.109C659.818 285.096 658.812 289.012 657.842 292.784C656.018 293.417 654.159 293.945 652.274 294.365C649.911 294.857 647.502 295.086 645.089 295.047C640.133 295.408 635.185 294.255 630.899 291.742C629.423 290.735 628.227 289.369 627.423 287.773C626.619 286.177 626.233 284.403 626.301 282.618C626.292 280.844 626.534 279.078 627.019 277.373C627.522 275.612 628.097 273.529 628.743 271.158C629.606 267.781 630.803 263.578 632.336 258.549C633.869 253.519 635.593 248.095 637.509 242.275C639.377 236.455 641.377 230.468 643.508 224.313C645.628 218.17 647.64 212.35 649.544 206.926C651.447 201.501 653.136 196.615 654.681 192.34C656.225 188.066 657.626 184.868 658.489 182.605ZM681.085 206.854C679.325 212.099 677.492 217.99 675.157 224.421C672.822 230.851 670.99 237.425 669.23 244.071H692.545C690.772 237.317 688.988 230.707 687.192 224.241C685.396 217.775 683.731 211.979 682.198 206.854H681.085Z" fill="#490CF5"/>
<path d="M797.084 296.161C790.764 296.213 784.478 295.231 778.475 293.251C772.748 291.412 767.511 288.302 763.156 284.152C758.801 280.003 755.441 274.922 753.329 269.29C750.793 262.493 749.574 255.275 749.736 248.023C749.543 240.873 750.764 233.755 753.329 227.079C755.719 221.188 759.402 215.909 764.106 211.632C768.872 207.325 774.507 204.09 780.631 202.148C787.601 199.946 794.876 198.867 802.185 198.95C808.865 198.897 815.514 199.854 821.908 201.788C826.895 203.133 831.654 205.215 836.026 207.967C838.364 209.576 840.365 211.627 841.917 214.003C843.461 216.54 844.223 219.476 844.109 222.445V324.756C842.851 325.116 840.839 325.511 838.073 325.978C835.28 326.411 832.458 326.628 829.631 326.624C827.14 326.652 824.652 326.46 822.195 326.05C820.18 325.766 818.267 324.989 816.627 323.786C815.092 322.6 813.922 321.007 813.25 319.188C812.425 316.737 812.047 314.157 812.136 311.572V293.61C809.829 294.53 807.415 295.158 804.951 295.478C802.349 295.897 799.72 296.125 797.084 296.161ZM812.495 225.857C811.223 225.291 809.9 224.846 808.544 224.528C806.827 224.116 805.064 223.923 803.299 223.953C800.422 223.766 797.538 224.198 794.842 225.221C792.146 226.243 789.701 227.833 787.672 229.881C783.678 234.91 781.728 241.26 782.211 247.663C782.211 255.926 783.972 261.913 787.492 265.625C789.46 267.512 791.798 268.972 794.357 269.912C796.917 270.851 799.643 271.251 802.365 271.086C805.935 271.264 809.473 270.336 812.495 268.427V225.857Z" fill="#490CF5"/>
<path d="M869.794 203.082C871.742 202.576 873.723 202.204 875.722 201.968C878.494 201.574 881.292 201.382 884.092 201.393C886.583 201.365 889.071 201.558 891.528 201.968C893.532 202.251 895.433 203.029 897.06 204.231C898.658 205.405 899.901 206.996 900.653 208.83C901.556 211.263 901.971 213.851 901.874 216.445V256.86C901.684 258.861 901.93 260.88 902.593 262.777C903.257 264.675 904.323 266.406 905.718 267.853C908.795 270.218 912.622 271.391 916.495 271.158C918.913 271.226 921.329 270.972 923.68 270.403C925.124 270.029 926.531 269.524 927.883 268.895V203.082C929.832 202.576 931.812 202.204 933.811 201.968C936.583 201.574 939.381 201.382 942.181 201.393C944.672 201.365 947.16 201.558 949.617 201.968C951.621 202.251 953.522 203.029 955.15 204.231C956.747 205.405 957.99 206.996 958.742 208.83C959.646 211.263 960.061 213.851 959.963 216.445V273.637C960.084 276.491 959.409 279.323 958.014 281.816C956.618 284.309 954.557 286.365 952.06 287.755C947.205 290.693 941.902 292.817 936.361 294.041C929.857 295.525 923.202 296.248 916.531 296.197C910.221 296.252 903.93 295.492 897.815 293.934C892.492 292.598 887.478 290.243 883.05 287C878.847 283.828 875.521 279.636 873.386 274.822C870.916 269.161 869.691 263.036 869.794 256.86V203.082Z" fill="#490CF5"/>
<path d="M984.176 176.39C984.119 174.165 984.513 171.952 985.334 169.884C986.155 167.816 987.387 165.935 988.954 164.355C992.434 161.207 996.96 159.464 1001.65 159.464C1006.35 159.464 1010.87 161.207 1014.35 164.355C1017.42 167.609 1019.14 171.915 1019.14 176.39C1019.14 180.865 1017.42 185.17 1014.35 188.424C1010.87 191.572 1006.35 193.315 1001.65 193.315C996.96 193.315 992.434 191.572 988.954 188.424C987.387 186.845 986.155 184.964 985.334 182.896C984.513 180.827 984.119 178.614 984.176 176.39ZM1017.62 292.963L1011.51 294.005C1008.81 294.437 1006.07 294.654 1003.32 294.652C1000.84 294.678 998.368 294.486 995.923 294.077C993.916 293.789 992.007 293.025 990.355 291.85C988.752 290.667 987.508 289.063 986.762 287.216C985.873 284.778 985.458 282.193 985.541 279.6V203.081L991.684 202.04C994.381 201.607 997.108 201.391 999.839 201.393C1002.33 201.365 1004.82 201.557 1007.27 201.968C1009.28 202.251 1011.18 203.029 1012.81 204.231C1014.4 205.404 1015.65 206.995 1016.4 208.829C1017.3 211.263 1017.72 213.851 1017.62 216.445V292.963Z" fill="#490CF5"/>
<path d="M408.278 242.095C408.53 274.714 350.333 369.733 350.333 369.733C350.333 369.733 290.411 275.684 290.124 243.029C289.986 227.366 296.076 212.289 307.054 201.115C318.032 189.942 332.999 183.587 348.662 183.449C364.326 183.311 379.402 189.401 390.576 200.379C401.749 211.357 408.104 226.324 408.242 241.987L408.278 242.095Z" fill="#6464FF"/>
<path d="M352.057 262.967C365.707 262.967 376.773 251.901 376.773 238.251C376.773 224.601 365.707 213.535 352.057 213.535C338.407 213.535 327.341 224.601 327.341 238.251C327.341 251.901 338.407 262.967 352.057 262.967Z" fill="white"/>
<path d="M365.42 62.7266C363.631 59.9567 361.223 57.6394 358.387 55.9565C355.551 54.2735 352.364 53.2708 349.075 53.0271C349.075 53.0271 338.298 51.6619 331.688 65.7801C325.365 78.9642 316.635 91.6813 330.287 94.7708L332.765 87.0831L334.274 95.3456C336.225 95.4533 338.179 95.4533 340.13 95.3456C354.751 94.8786 368.869 95.3456 368.222 90.2444C367.612 83.2392 370.701 71.6716 365.42 62.7266Z" fill="#2F2E41"/>
<path d="M325.832 137.592L324.683 158.392L358.559 161.841L359.709 140.287L348.177 132.958L325.832 137.592Z" fill="#A0616A"/>
<path d="M416.899 183.215C415.893 173.408 375.551 168.846 365.851 168.02L362.259 165.9L361.109 153.578C361.109 153.578 325.185 150.489 322.599 149.986C320.012 149.483 317.605 154.62 317.605 155.769C317.443 159.348 316.589 162.862 315.09 166.116C310.708 169.708 297.38 180.485 297.38 184.832C297.38 189.861 307.977 252.8 307.977 252.8L309.127 265.877L319.904 267.817L319.15 227.007C319.15 227.007 322.994 203.513 317.605 196.974V194.28C317.605 194.28 333.412 190.149 339.16 185.658C341.99 184.954 344.931 184.807 347.817 185.227L349.003 185.838C356.188 189.179 374.688 193.454 382.232 192.232C388.071 191.345 394.038 192.432 399.189 195.322C394.95 200.71 398.039 216.122 398.039 216.122L398.398 249.208L403.823 255.782H411.008V237.82C411.008 237.82 418.049 194.388 416.899 183.215Z" fill="#C7C7FF"/>
<path d="M345.662 88.1247C352.686 88.1247 358.38 82.431 358.38 75.4075C358.38 68.3841 352.686 62.6904 345.662 62.6904C338.639 62.6904 332.945 68.3841 332.945 75.4075C332.945 82.431 338.639 88.1247 345.662 88.1247Z" fill="#A0616A"/>
<path d="M338.118 83.4902C338.118 83.4902 340.058 91.9683 337.364 92.7586C335.13 93.4236 332.974 94.3269 330.933 95.4529L327.844 105.44V115.57L365.205 119.809L366.354 116.217V111.224L362.115 103.536L360.211 101.596C360.211 101.596 351.733 92.3635 353.637 83.6339L338.118 83.4902Z" fill="#A0616A"/>
<path d="M371.276 114.098C371.885 120.634 371.885 127.212 371.276 133.748C370.56 138.852 370.307 144.01 370.522 149.16L362.043 147.615V126.815L363.947 115.642L371.276 114.098Z" fill="#A0616A"/>
<path d="M350.404 60.93C354.749 60.93 358.272 57.4077 358.272 53.0627C358.272 48.7177 354.749 45.1953 350.404 45.1953C346.059 45.1953 342.537 48.7177 342.537 53.0627C342.537 57.4077 346.059 60.93 350.404 60.93Z" fill="#2F2E41"/>
<path d="M362.977 61.8278L352.272 56.2236L337.435 58.5228L334.382 72.0661L341.998 71.7428L344.153 66.7853V71.671L347.674 71.5273L349.685 63.624L350.979 72.0661L363.48 71.8147L362.977 61.8278Z" fill="#2F2E41"/>
<path d="M316.205 107.56L309.379 136.047C308.654 137.869 308.62 139.892 309.281 141.738C309.942 143.583 311.255 145.124 312.972 146.07C319.335 149.567 325.952 152.581 332.766 155.087C332.766 155.087 345.088 172.043 346.633 165.11C348.177 158.177 337.4 149.339 337.4 149.339L318.54 137.125L325.725 117.115L316.205 107.56Z" fill="#A0616A"/>
<path d="M366.283 143.376C366.283 143.376 372.03 142.586 371.671 149.16C371.312 155.734 363.588 156.344 363.588 156.344C363.588 156.344 359.996 170.966 355.11 168.271C350.225 165.577 357.805 150.956 357.805 150.956L364.343 145.962L366.283 143.376Z" fill="#A0616A"/>
<path d="M329.101 105.081L335.28 92.3638L322.958 96.6028C320.902 97.7831 319.17 99.4538 317.916 101.466C316.663 103.478 315.926 105.769 315.773 108.134C315.414 116.217 324.646 120.456 324.646 120.456C325.288 124.784 325.492 129.164 325.257 133.533C324.871 136.081 324.871 138.672 325.257 141.22C325.257 141.22 340.093 137.161 347.422 142.19C349.267 143.646 351.453 144.606 353.774 144.977C356.094 145.348 358.471 145.118 360.678 144.31C360.678 144.31 360.319 134.682 363.372 133.138C365.319 131.56 366.681 129.377 367.241 126.935C367.801 124.493 367.526 121.934 366.462 119.666C366.462 119.666 372.605 120.42 372.246 114.637C372.145 111.895 371.303 109.231 369.81 106.929C368.318 104.627 366.23 102.771 363.767 101.56C358.774 99.2612 358.199 98.9019 358.199 98.9019L365.384 111.942V115.535C357.743 110.824 349.157 107.856 340.237 106.841C336.187 106.622 332.197 107.901 329.029 110.434L329.101 105.081Z" fill="#8CC63F"/>
<path d="M319.294 253.052C319.294 253.052 324.755 255.638 326.479 256.644C328.204 257.65 334.526 255.674 333.089 261.422C331.762 265.653 329.447 269.507 326.335 272.666C325.063 274.014 324.171 275.675 323.749 277.48C323.749 279.42 317.319 294.185 309.595 293.538C308.596 293.487 307.621 293.22 306.735 292.755C305.849 292.291 305.074 291.641 304.464 290.849C303.853 290.058 303.42 289.143 303.196 288.169C302.972 287.194 302.961 286.183 303.164 285.204L304.781 276.833C305.736 272.15 307.02 267.541 308.625 263.039C309.479 263.795 310.239 264.651 310.888 265.589C313.314 264.485 315.386 262.727 316.87 260.513C318.355 258.299 319.194 255.716 319.294 253.052Z" fill="#C1272D"/>
<path d="M399.405 243.424C399.405 243.424 393.944 246.011 392.22 247.017C390.495 248.023 384.173 246.047 385.466 251.831C386.793 256.061 389.108 259.915 392.22 263.075C392.22 263.075 394.806 265.985 394.806 267.889C394.806 269.793 401.237 284.593 408.924 283.947C409.925 283.901 410.904 283.638 411.793 283.176C412.682 282.713 413.459 282.063 414.071 281.27C414.683 280.477 415.115 279.56 415.337 278.583C415.558 277.605 415.565 276.592 415.355 275.612L413.738 267.242C412.826 262.545 411.565 257.922 409.966 253.411C409.112 254.167 408.352 255.024 407.703 255.962C405.297 254.842 403.248 253.078 401.783 250.865C400.318 248.652 399.495 246.077 399.405 243.424Z" fill="#C1272D"/>
</g>
<defs>
<clipPath id="clip0">
<rect width="1015.11" height="354.75" fill="white" transform="translate(4 15)"/>
</clipPath>
</defs>
</svg>
