<svg width="13" height="13" viewBox="0 0 13 13" fill="none" xmlns="http://www.w3.org/2000/svg">
<path fill-rule="evenodd" clip-rule="evenodd" d="M6.5 13C10.0899 13 13 10.0899 13 6.5C13 2.91015 10.0899 0 6.5 0C2.91015 0 0 2.91015 0 6.5C0 10.0899 2.91015 13 6.5 13Z" fill="#B40C02"/>
<path d="M6.73828 8.38086H5.33203L5.13281 2.46875H6.9375L6.73828 8.38086ZM6.03516 9.30664C6.32031 9.30664 6.54883 9.39062 6.7207 9.55859C6.89648 9.72656 6.98438 9.94141 6.98438 10.2031C6.98438 10.4609 6.89648 10.6738 6.7207 10.8418C6.54883 11.0098 6.32031 11.0938 6.03516 11.0938C5.75391 11.0938 5.52539 11.0098 5.34961 10.8418C5.17773 10.6738 5.0918 10.4609 5.0918 10.2031C5.0918 9.94531 5.17773 9.73242 5.34961 9.56445C5.52539 9.39258 5.75391 9.30664 6.03516 9.30664Z" fill="white"/>
</svg>
