<svg id="Camada_1" data-name="Camada 1" xmlns="http://www.w3.org/2000/svg" viewBox="0 0 527.79 457.15"><defs><style>.cls-1{fill:#6933ff;opacity:0.51;}.cls-2{font-size:157.39px;font-family:BalooBhai-Regular, Baloo Bhai;letter-spacing:-0.03em;}.cls-2,.cls-4{fill:#fff;}.cls-3{letter-spacing:-0.04em;}</style></defs><title>Prancheta 11</title><path class="cls-1" d="M292.67,74.25c129.86-6.86,202.74,63,221.59,146.6,32.15,142.6-70,236.24-202.21,228.26-103-6.21-295.66-68.5-262-199.53C71.68,165.59,140.46,82.3,292.67,74.25Z"/><path class="cls-1" d="M459.4,84.26C536.81,144.2,485,313.53,433.34,354.94c-9.11,7.31-17.93,16.41-27.14,22.76C291.79,456.64,171.71,461.47,109.8,435c-73.65-31.47-106-123.42-81.73-215.56,13.66-51.89,63.21-137.07,230-181.64C317,22.1,384.14,26,459.4,84.26Z"/><path class="cls-1" d="M314.88,412.34c-92.36,14.88-202.43-27.07-268.7-101.15C-44.68,209.62,31.89,93.27,127.63,94.86,194,96,207.35,74,208.25,53.63c2.17-49.26,80-69.18,163.48-15.49C446.22,86.05,482.49,144.67,488.29,190c8.2,64-16.31,122.94-44.76,155.18C406.81,386.73,358.16,405.37,314.88,412.34Z"/><text class="cls-2" transform="translate(193.02 300.57)">S<tspan class="cls-3" x="81.68" y="0">GP</tspan></text><path class="cls-4" d="M180.86,171.74H152.94a6.57,6.57,0,0,0-6.55,6.55V293.94a6.56,6.56,0,0,0,6.55,6.54h27.92a6.56,6.56,0,0,0,6.55-6.54V178.29A6.57,6.57,0,0,0,180.86,171.74ZM166.24,286a9.67,9.67,0,1,1,9.66-9.67A9.67,9.67,0,0,1,166.24,286Zm9.66-84.17H156.57V183.26H175.9Z"/><path class="cls-4" d="M141.25,183l-25.81-5.67a6.21,6.21,0,0,0-7.38,4.72L84.58,288.94a6.21,6.21,0,0,0,4.72,7.38L115.11,302a6.23,6.23,0,0,0,7.39-4.72L146,190.36A6.22,6.22,0,0,0,141.25,183Zm-25.82,95.69a9.15,9.15,0,1,1-7-10.89A9.15,9.15,0,0,1,115.43,278.67Zm15.13-68.87-17.87-3.92,3.77-17.19,17.87,3.93Z"/></svg>