<?xml version="1.0" encoding="utf-8"?>
<!-- Generator: Adobe Illustrator 22.0.0, SVG Export Plug-In . SVG Version: 6.00 Build 0)  -->
<svg version="1.1" id="Camada_1" xmlns="http://www.w3.org/2000/svg" xmlns:xlink="http://www.w3.org/1999/xlink" x="0px" y="0px"
	 viewBox="0 0 527.8 457.1" style="enable-background:new 0 0 527.8 457.1;" xml:space="preserve">
<style type="text/css">
	.st0{opacity:0.51;fill:#6933FF;enable-background:new    ;}
	.st1{enable-background:new    ;}
	.st2{fill:#FFFFFF;}
</style>
<title>Prancheta 11</title>
<path class="st0" d="M292.7,74.2c129.9-6.9,202.7,63,221.6,146.6c32.2,142.6-70,236.2-202.2,228.3c-103-6.2-295.7-68.5-262-199.5
	C71.7,165.6,140.5,82.3,292.7,74.2z"/>
<path class="st0" d="M459.4,84.3c77.4,59.9,25.6,229.3-26.1,270.7c-9.1,7.3-17.9,16.4-27.1,22.8c-114.4,78.9-234.5,83.8-296.4,57.3
	c-73.7-31.5-106-123.4-81.7-215.6c13.7-51.9,63.2-137.1,230-181.6C317,22.1,384.1,26,459.4,84.3z"/>
<path class="st0" d="M314.9,412.3c-92.4,14.9-202.4-27.1-268.7-101.1C-44.7,209.6,31.9,93.3,127.6,94.9C194,96,207.4,74,208.2,53.6
	c2.2-49.3,80-69.2,163.5-15.5C446.2,86,482.5,144.7,488.3,190c8.2,64-16.3,122.9-44.8,155.2C406.8,386.7,358.2,405.4,314.9,412.3z"
	/>
<g class="st1">
	<path class="st2" d="M230.3,262.6c-4.6-1.6-8.8-3.2-12.6-4.8c-3.8-1.6-7-3.6-9.8-5.9c-2.7-2.3-4.9-5.1-6.4-8.3
		c-1.5-3.2-2.3-7.1-2.3-11.7c0-8.9,3.4-16.1,10.3-21.4c6.9-5.4,16.5-8,28.9-8c4.5,0,8.7,0.3,12.6,0.9c3.9,0.6,7.2,1.6,10,2.9
		c2.8,1.3,5,3,6.5,5c1.6,2,2.4,4.4,2.4,7.2c0,2.7-0.6,5.1-1.9,7c-1.3,1.9-2.8,3.6-4.6,5c-2.3-1.5-5.4-2.8-9.3-3.9
		c-3.9-1.1-8.1-1.7-12.7-1.7c-4.7,0-8.2,0.7-10.4,2c-2.2,1.3-3.3,3-3.3,5c0,1.6,0.7,2.9,2,3.9c1.4,1,3.4,1.9,6.1,2.8l8.3,2.7
		c9.9,3.1,17.4,7.2,22.7,12c5.3,4.9,7.9,11.5,7.9,19.9c0,8.9-3.5,16.1-10.5,21.6c-7,5.5-17.4,8.3-31,8.3c-4.8,0-9.3-0.4-13.5-1.2
		c-4.1-0.8-7.8-1.9-10.9-3.5c-3.1-1.5-5.5-3.4-7.2-5.7c-1.7-2.3-2.6-4.9-2.6-7.8c0-3,0.9-5.6,2.7-7.8c1.8-2.1,3.7-3.8,5.8-5
		c2.9,2.3,6.5,4.3,10.8,6c4.2,1.7,8.9,2.5,13.9,2.5c5.1,0,8.8-0.8,10.9-2.4c2.1-1.6,3.1-3.4,3.1-5.5c0-2.1-0.8-3.7-2.5-4.8
		c-1.7-1.1-4-2.2-7.1-3.2L230.3,262.6z"/>
</g>
<g class="st1">
	<path class="st2" d="M371.3,285c0,3.3-0.6,5.7-1.7,7.2c-1.2,1.6-3,3.1-5.5,4.6c-1.5,0.8-3.3,1.7-5.5,2.4s-4.6,1.5-7.2,2
		c-2.6,0.6-5.4,1-8.3,1.3c-2.9,0.3-5.7,0.5-8.6,0.5c-7.6,0-14.6-1-21.2-3.1s-12.4-5.1-17.2-9.3c-4.9-4.1-8.7-9.3-11.6-15.5
		c-2.8-6.2-4.2-13.4-4.2-21.6c0-8.6,1.5-16.1,4.6-22.5c3.1-6.4,7.2-11.7,12.3-16c5.1-4.2,10.9-7.4,17.5-9.5
		c6.6-2.1,13.3-3.1,20.2-3.1c10,0,17.9,1.6,23.7,4.8c5.8,3.2,8.7,7.4,8.7,12.5c0,2.7-0.7,5.1-2,7.1c-1.4,2-2.9,3.6-4.7,4.7
		c-2.6-1.6-5.9-3.1-9.8-4.6c-3.9-1.5-8.4-2.3-13.3-2.3c-8.8,0-15.8,2.5-21,7.6c-5.2,5-7.8,12-7.8,20.9c0,4.8,0.7,9,2.1,12.5
		c1.4,3.5,3.3,6.4,5.7,8.7c2.4,2.3,5.2,3.9,8.3,5s6.5,1.7,10.1,1.7c2.3,0,4.4-0.2,6.1-0.6c1.8-0.4,3.1-0.9,4.1-1.4v-14.8h-16.8
		c-0.6-1.2-1.2-2.7-1.8-4.6c-0.6-1.9-0.9-3.9-0.9-6c0-3.8,0.9-6.5,2.6-8.2c1.7-1.7,4-2.5,6.7-2.5h26.6c3.1,0,5.6,0.9,7.3,2.6
		s2.6,4.2,2.6,7.3V285z"/>
	<path class="st2" d="M410.7,299.9c-1.2,0.3-3,0.6-5.4,0.9c-2.5,0.3-4.9,0.5-7.3,0.5c-2.4,0-4.5-0.2-6.4-0.6c-1.8-0.4-3.4-1-4.6-2
		c-1.3-0.9-2.2-2.3-2.8-3.9c-0.6-1.7-0.9-3.9-0.9-6.6v-74.1c0-2.2,0.6-3.9,1.8-5.1c1.2-1.2,2.9-2.2,5-2.9c3.6-1.3,7.6-2.2,12.2-2.8
		c4.6-0.6,9.2-0.9,13.8-0.9c14.5,0,25.5,3.1,33.2,9.3c7.7,6.2,11.5,14.6,11.5,25.2c0,5.1-0.8,9.8-2.4,13.9c-1.6,4.1-4,7.7-7.2,10.7
		c-3.2,3-7.2,5.3-12.1,6.9c-4.9,1.6-10.5,2.4-16.9,2.4h-11.2V299.9z M418.9,249.4c4.4,0,7.8-1,10.2-3.1c2.4-2,3.5-5.2,3.5-9.4
		c0-4-1.2-7.1-3.7-9.2c-2.5-2.1-6.1-3.2-10.8-3.2c-1.7,0-3.1,0-4.2,0.1c-1.1,0.1-2.2,0.2-3.4,0.4v24.4H418.9z"/>
</g>
<path class="st2" d="M180.9,171.7h-27.9c-3.6,0-6.5,2.9-6.6,6.6v115.7c0,3.6,2.9,6.5,6.6,6.5h27.9c3.6,0,6.5-2.9,6.6-6.5V178.3
	C187.4,174.7,184.5,171.8,180.9,171.7z M166.2,286c-5.3,0-9.7-4.3-9.7-9.7c0-5.3,4.3-9.7,9.7-9.7s9.7,4.3,9.7,9.7c0,0,0,0,0,0
	C175.9,281.7,171.6,286,166.2,286z M175.9,201.8h-19.3v-18.6h19.3L175.9,201.8z"/>
<path class="st2" d="M141.2,183l-25.8-5.7c-3.3-0.7-6.6,1.4-7.4,4.7L84.6,288.9c-0.7,3.3,1.4,6.6,4.7,7.4l25.8,5.7
	c3.3,0.7,6.6-1.4,7.4-4.7L146,190.4C146.7,187,144.6,183.7,141.2,183z M115.4,278.7c-1.1,4.9-6,8.1-10.9,7c-4.9-1.1-8.1-6-7-10.9
	c1.1-4.9,5.9-8.1,10.9-7C113.4,268.9,116.5,273.7,115.4,278.7L115.4,278.7z M130.6,209.8l-17.9-3.9l3.8-17.2l17.9,3.9L130.6,209.8z"
	/>
</svg>
